<svg width="46" height="34" viewBox="0 0 46 40" fill="none" xmlns="http://www.w3.org/2000/svg">
<path d="M5.07383 11.8157L21.9391 0.725506C22.6083 0.285464 23.4754 0.287068 24.143 0.729584L40.9648 11.8806C42.4382 12.8574 41.7467 15.1522 39.9789 15.1522C38.9934 15.1522 38.1946 15.951 38.1946 16.9365V32C38.1946 33.1046 37.2991 34 36.1946 34H29.1076C28.003 34 27.1076 33.1046 27.1076 32V19.7391C27.1076 18.6346 26.2122 17.7391 25.1076 17.7391H20.9772C19.8726 17.7391 18.9772 18.6346 18.9772 19.7391V32C18.9772 33.1046 18.0817 34 16.9772 34H9.89022C8.78565 34 7.89022 33.1046 7.89022 32V16.9699C7.89022 15.966 7.07641 15.1522 6.07253 15.1522C4.26815 15.1522 3.5662 12.8071 5.07383 11.8157Z" fill="#36427D"/>
<line x1="9" y1="38.5" x2="38" y2="38.5" stroke="#36427D" stroke-width="3" stroke-linecap="round"/>
</svg>
